<mxfile host="app.diagrams.net" modified="2020-12-04T02:02:16.446Z" agent="5.0 (Macintosh; Intel Mac OS X 10_15_4) AppleWebKit/537.36 (KHTML, like Gecko) Chrome/87.0.4280.67 Safari/537.36" etag="ZldCePvJShv5ZyxWZboI" version="13.10.6" type="github">
  <diagram id="cGJP1CqOVEZWJWutf4hN" name="ページ1">
    <mxGraphModel dx="786" dy="457" grid="1" gridSize="10" guides="1" tooltips="1" connect="1" arrows="1" fold="1" page="1" pageScale="1" pageWidth="1169" pageHeight="827" math="0" shadow="0">
      <root>
        <mxCell id="0" />
        <mxCell id="1" parent="0" />
        <mxCell id="nuU0W_QL4hWOlOFwPAj9-1" value="On-Premise" style="outlineConnect=0;gradientColor=none;html=1;whiteSpace=wrap;fontSize=12;fontStyle=0;shape=mxgraph.aws4.group;grIcon=mxgraph.aws4.group_on_premise;strokeColor=#AAB7B8;fillColor=none;verticalAlign=top;align=left;spacingLeft=30;fontColor=#AAB7B8;dashed=0;" vertex="1" parent="1">
          <mxGeometry x="880" y="190" width="220" height="310" as="geometry" />
        </mxCell>
        <mxCell id="nuU0W_QL4hWOlOFwPAj9-2" value="AーZone" style="outlineConnect=0;gradientColor=none;html=1;whiteSpace=wrap;fontSize=12;fontStyle=0;shape=mxgraph.aws4.group;grIcon=mxgraph.aws4.group_region;strokeColor=#879196;fillColor=none;verticalAlign=top;align=left;spacingLeft=30;fontColor=#879196;dashed=1;" vertex="1" parent="1">
          <mxGeometry x="370" y="180" width="360" height="254" as="geometry" />
        </mxCell>
        <mxCell id="nuU0W_QL4hWOlOFwPAj9-3" value="CーZone" style="outlineConnect=0;gradientColor=none;html=1;whiteSpace=wrap;fontSize=12;fontStyle=0;shape=mxgraph.aws4.group;grIcon=mxgraph.aws4.group_region;strokeColor=#879196;fillColor=none;verticalAlign=top;align=left;spacingLeft=30;fontColor=#879196;dashed=1;" vertex="1" parent="1">
          <mxGeometry x="370" y="490" width="360" height="311" as="geometry" />
        </mxCell>
        <mxCell id="nuU0W_QL4hWOlOFwPAj9-24" style="edgeStyle=orthogonalEdgeStyle;rounded=0;orthogonalLoop=1;jettySize=auto;html=1;" edge="1" parent="1" source="nuU0W_QL4hWOlOFwPAj9-5" target="nuU0W_QL4hWOlOFwPAj9-10">
          <mxGeometry relative="1" as="geometry" />
        </mxCell>
        <mxCell id="nuU0W_QL4hWOlOFwPAj9-25" value="log" style="edgeLabel;html=1;align=center;verticalAlign=middle;resizable=0;points=[];" vertex="1" connectable="0" parent="nuU0W_QL4hWOlOFwPAj9-24">
          <mxGeometry x="-0.189" relative="1" as="geometry">
            <mxPoint as="offset" />
          </mxGeometry>
        </mxCell>
        <mxCell id="nuU0W_QL4hWOlOFwPAj9-5" value="NFS" style="rounded=1;whiteSpace=wrap;html=1;" vertex="1" parent="1">
          <mxGeometry x="910" y="230" width="70" height="36" as="geometry" />
        </mxCell>
        <mxCell id="nuU0W_QL4hWOlOFwPAj9-7" value="S3　Bucket　Log収集用" style="outlineConnect=0;fontColor=#232F3E;gradientColor=none;fillColor=#277116;strokeColor=none;dashed=0;verticalLabelPosition=bottom;verticalAlign=top;align=center;html=1;fontSize=12;fontStyle=0;aspect=fixed;pointerEvents=1;shape=mxgraph.aws4.bucket;" vertex="1" parent="1">
          <mxGeometry x="650" y="40" width="57.69" height="60" as="geometry" />
        </mxCell>
        <mxCell id="nuU0W_QL4hWOlOFwPAj9-9" value="VPC" style="points=[[0,0],[0.25,0],[0.5,0],[0.75,0],[1,0],[1,0.25],[1,0.5],[1,0.75],[1,1],[0.75,1],[0.5,1],[0.25,1],[0,1],[0,0.75],[0,0.5],[0,0.25]];outlineConnect=0;gradientColor=none;html=1;whiteSpace=wrap;fontSize=12;fontStyle=0;shape=mxgraph.aws4.group;grIcon=mxgraph.aws4.group_vpc;strokeColor=#248814;fillColor=none;verticalAlign=top;align=left;spacingLeft=30;fontColor=#AAB7B8;dashed=0;" vertex="1" parent="1">
          <mxGeometry x="340" y="150" width="400" height="670" as="geometry" />
        </mxCell>
        <mxCell id="nuU0W_QL4hWOlOFwPAj9-12" style="edgeStyle=orthogonalEdgeStyle;rounded=0;orthogonalLoop=1;jettySize=auto;html=1;" edge="1" parent="1" source="nuU0W_QL4hWOlOFwPAj9-10" target="nuU0W_QL4hWOlOFwPAj9-7">
          <mxGeometry relative="1" as="geometry" />
        </mxCell>
        <mxCell id="nuU0W_QL4hWOlOFwPAj9-14" value="Log" style="edgeLabel;html=1;align=center;verticalAlign=middle;resizable=0;points=[];" vertex="1" connectable="0" parent="nuU0W_QL4hWOlOFwPAj9-12">
          <mxGeometry x="0.2254" y="1" relative="1" as="geometry">
            <mxPoint as="offset" />
          </mxGeometry>
        </mxCell>
        <mxCell id="nuU0W_QL4hWOlOFwPAj9-10" value="EC2" style="outlineConnect=0;fontColor=#232F3E;gradientColor=none;fillColor=#D86613;strokeColor=none;dashed=0;verticalLabelPosition=bottom;verticalAlign=top;align=center;html=1;fontSize=12;fontStyle=0;aspect=fixed;pointerEvents=1;shape=mxgraph.aws4.instance2;" vertex="1" parent="1">
          <mxGeometry x="654.84" y="224" width="48" height="48" as="geometry" />
        </mxCell>
        <mxCell id="nuU0W_QL4hWOlOFwPAj9-15" value="Price" style="outlineConnect=0;fontColor=#232F3E;gradientColor=none;fillColor=#D86613;strokeColor=none;dashed=0;verticalLabelPosition=bottom;verticalAlign=top;align=center;html=1;fontSize=12;fontStyle=0;aspect=fixed;pointerEvents=1;shape=mxgraph.aws4.instance2;" vertex="1" parent="1">
          <mxGeometry x="585" y="224" width="48" height="48" as="geometry" />
        </mxCell>
        <mxCell id="nuU0W_QL4hWOlOFwPAj9-16" value="Price" style="outlineConnect=0;fontColor=#232F3E;gradientColor=none;fillColor=#D86613;strokeColor=none;dashed=0;verticalLabelPosition=bottom;verticalAlign=top;align=center;html=1;fontSize=12;fontStyle=0;aspect=fixed;pointerEvents=1;shape=mxgraph.aws4.instance2;" vertex="1" parent="1">
          <mxGeometry x="659.69" y="520" width="48" height="48" as="geometry" />
        </mxCell>
        <mxCell id="nuU0W_QL4hWOlOFwPAj9-17" value="Hulft" style="outlineConnect=0;fontColor=#232F3E;gradientColor=none;fillColor=#D86613;strokeColor=none;dashed=0;verticalLabelPosition=bottom;verticalAlign=top;align=center;html=1;fontSize=12;fontStyle=0;aspect=fixed;pointerEvents=1;shape=mxgraph.aws4.instance2;" vertex="1" parent="1">
          <mxGeometry x="398" y="364" width="50" height="50" as="geometry" />
        </mxCell>
        <mxCell id="nuU0W_QL4hWOlOFwPAj9-18" value="Hulft" style="outlineConnect=0;fontColor=#232F3E;gradientColor=none;fillColor=#D86613;strokeColor=none;dashed=0;verticalLabelPosition=bottom;verticalAlign=top;align=center;html=1;fontSize=12;fontStyle=0;aspect=fixed;pointerEvents=1;shape=mxgraph.aws4.instance2;" vertex="1" parent="1">
          <mxGeometry x="399" y="540" width="48" height="48" as="geometry" />
        </mxCell>
        <mxCell id="nuU0W_QL4hWOlOFwPAj9-19" value="Jump" style="outlineConnect=0;fontColor=#232F3E;gradientColor=none;fillColor=#D86613;strokeColor=none;dashed=0;verticalLabelPosition=bottom;verticalAlign=top;align=center;html=1;fontSize=12;fontStyle=0;aspect=fixed;pointerEvents=1;shape=mxgraph.aws4.instance2;" vertex="1" parent="1">
          <mxGeometry x="430" y="224" width="48" height="48" as="geometry" />
        </mxCell>
        <mxCell id="nuU0W_QL4hWOlOFwPAj9-20" value="Zabbix" style="outlineConnect=0;fontColor=#232F3E;gradientColor=none;fillColor=#D86613;strokeColor=none;dashed=0;verticalLabelPosition=bottom;verticalAlign=top;align=center;html=1;fontSize=12;fontStyle=0;aspect=fixed;pointerEvents=1;shape=mxgraph.aws4.instance2;" vertex="1" parent="1">
          <mxGeometry x="510" y="224" width="48" height="48" as="geometry" />
        </mxCell>
        <mxCell id="nuU0W_QL4hWOlOFwPAj9-23" value="AWS Direct Connect" style="outlineConnect=0;dashed=0;verticalLabelPosition=bottom;verticalAlign=top;align=center;html=1;shape=mxgraph.aws3.direct_connect;fillColor=#F58536;gradientColor=none;" vertex="1" parent="1">
          <mxGeometry x="790" y="160" width="50" height="51" as="geometry" />
        </mxCell>
        <mxCell id="nuU0W_QL4hWOlOFwPAj9-26" value="Zabbix" style="outlineConnect=0;fontColor=#232F3E;gradientColor=none;fillColor=#D86613;strokeColor=none;dashed=0;verticalLabelPosition=bottom;verticalAlign=top;align=center;html=1;fontSize=12;fontStyle=0;aspect=fixed;pointerEvents=1;shape=mxgraph.aws4.instance2;" vertex="1" parent="1">
          <mxGeometry x="590" y="520" width="48" height="48" as="geometry" />
        </mxCell>
        <mxCell id="nuU0W_QL4hWOlOFwPAj9-27" value="IB" style="outlineConnect=0;fontColor=#232F3E;gradientColor=none;fillColor=#D86613;strokeColor=none;dashed=0;verticalLabelPosition=bottom;verticalAlign=top;align=center;html=1;fontSize=12;fontStyle=0;aspect=fixed;pointerEvents=1;shape=mxgraph.aws4.instance2;" vertex="1" parent="1">
          <mxGeometry x="382" y="283" width="48" height="48" as="geometry" />
        </mxCell>
        <mxCell id="nuU0W_QL4hWOlOFwPAj9-28" value="IB" style="outlineConnect=0;fontColor=#232F3E;gradientColor=none;fillColor=#D86613;strokeColor=none;dashed=0;verticalLabelPosition=bottom;verticalAlign=top;align=center;html=1;fontSize=12;fontStyle=0;aspect=fixed;pointerEvents=1;shape=mxgraph.aws4.instance2;" vertex="1" parent="1">
          <mxGeometry x="516" y="520" width="48" height="48" as="geometry" />
        </mxCell>
        <mxCell id="nuU0W_QL4hWOlOFwPAj9-30" style="edgeStyle=orthogonalEdgeStyle;rounded=0;orthogonalLoop=1;jettySize=auto;html=1;" edge="1" parent="1" source="nuU0W_QL4hWOlOFwPAj9-29" target="nuU0W_QL4hWOlOFwPAj9-19">
          <mxGeometry relative="1" as="geometry" />
        </mxCell>
        <mxCell id="nuU0W_QL4hWOlOFwPAj9-31" value="踏み台" style="edgeLabel;html=1;align=center;verticalAlign=middle;resizable=0;points=[];" vertex="1" connectable="0" parent="nuU0W_QL4hWOlOFwPAj9-30">
          <mxGeometry x="-0.2818" y="1" relative="1" as="geometry">
            <mxPoint as="offset" />
          </mxGeometry>
        </mxCell>
        <mxCell id="nuU0W_QL4hWOlOFwPAj9-29" value="" style="fontColor=#0066CC;verticalAlign=top;verticalLabelPosition=bottom;labelPosition=center;align=center;html=1;outlineConnect=0;fillColor=#CCCCCC;strokeColor=#6881B3;gradientColor=none;gradientDirection=north;strokeWidth=2;shape=mxgraph.networks.terminal;" vertex="1" parent="1">
          <mxGeometry x="110" y="218" width="60" height="60" as="geometry" />
        </mxCell>
        <mxCell id="nuU0W_QL4hWOlOFwPAj9-33" style="edgeStyle=orthogonalEdgeStyle;rounded=0;orthogonalLoop=1;jettySize=auto;html=1;" edge="1" parent="1" source="nuU0W_QL4hWOlOFwPAj9-32" target="nuU0W_QL4hWOlOFwPAj9-17">
          <mxGeometry relative="1" as="geometry" />
        </mxCell>
        <mxCell id="nuU0W_QL4hWOlOFwPAj9-35" style="edgeStyle=orthogonalEdgeStyle;rounded=0;orthogonalLoop=1;jettySize=auto;html=1;" edge="1" parent="1" source="nuU0W_QL4hWOlOFwPAj9-32" target="nuU0W_QL4hWOlOFwPAj9-18">
          <mxGeometry relative="1" as="geometry" />
        </mxCell>
        <mxCell id="nuU0W_QL4hWOlOFwPAj9-36" value="ファイル転送" style="edgeLabel;html=1;align=center;verticalAlign=middle;resizable=0;points=[];" vertex="1" connectable="0" parent="nuU0W_QL4hWOlOFwPAj9-35">
          <mxGeometry x="-0.242" y="1" relative="1" as="geometry">
            <mxPoint y="1" as="offset" />
          </mxGeometry>
        </mxCell>
        <mxCell id="nuU0W_QL4hWOlOFwPAj9-32" value="Hulft&lt;br&gt;" style="fontColor=#0066CC;verticalAlign=top;verticalLabelPosition=bottom;labelPosition=center;align=center;html=1;outlineConnect=0;fillColor=#CCCCCC;strokeColor=#6881B3;gradientColor=none;gradientDirection=north;strokeWidth=2;shape=mxgraph.networks.terminal;" vertex="1" parent="1">
          <mxGeometry x="150" y="435" width="80" height="65" as="geometry" />
        </mxCell>
      </root>
    </mxGraphModel>
  </diagram>
</mxfile>
